<?xml version="1.0" encoding="UTF-8" standalone="no"?>
<svg
   xmlns:dc="http://purl.org/dc/elements/1.1/"
   xmlns:cc="http://creativecommons.org/ns#"
   xmlns:rdf="http://www.w3.org/1999/02/22-rdf-syntax-ns#"
   xmlns:svg="http://www.w3.org/2000/svg"
   xmlns="http://www.w3.org/2000/svg"
   xmlns:sodipodi="http://sodipodi.sourceforge.net/DTD/sodipodi-0.dtd"
   xmlns:inkscape="http://www.inkscape.org/namespaces/inkscape"
   width="48"
   height="48"
   viewBox="0 0 12.7 12.7"
   version="1.1"
   id="svg8"
   inkscape:version="1.0.1 (1.0.1+r73)"
   sodipodi:docname="madcad-cst-gear.svg">
  
  <style id="current-color-scheme" type="text/css">
	  .ColorScheme-Text { color:#232629; }
      .ColorScheme-Highlight { color:#93cee9; }
    </style>
  <sodipodi:namedview
     id="base"
     pagecolor="#2d2d2d"
     bordercolor="#666666"
     borderopacity="1.0"
     inkscape:pageopacity="0"
     inkscape:pageshadow="2"
     inkscape:zoom="5.5731769"
     inkscape:cx="9.9099218"
     inkscape:cy="23.142907"
     inkscape:document-units="px"
     inkscape:current-layer="layer1"
     showgrid="false"
     units="px"
     inkscape:window-width="958"
     inkscape:window-height="570"
     inkscape:window-x="902"
     inkscape:window-y="308"
     inkscape:window-maximized="0"
     borderlayer="false"
     inkscape:showpageshadow="false"
     inkscape:snap-global="false"
     inkscape:document-rotation="0">
    <inkscape:grid
       type="xygrid"
       id="grid939" />
  </sodipodi:namedview>
  <metadata
     id="metadata5">
    <rdf:RDF>
      <cc:Work
         rdf:about="">
        <dc:format>image/svg+xml</dc:format>
        <dc:type
           rdf:resource="http://purl.org/dc/dcmitype/StillImage" />
        <dc:title></dc:title>
      </cc:Work>
    </rdf:RDF>
  </metadata>
  <g
     inkscape:label="Calque 1"
     inkscape:groupmode="layer"
     id="layer1"
     transform="translate(0,-284.29998)">
    <path
       style="fill:none;stroke:#888888;stroke-width:0.7;stroke-miterlimit:4;stroke-dasharray:none;stroke-opacity:1"
       id="path1992"
       sodipodi:type="arc"
       sodipodi:cx="2.9310379"
       sodipodi:cy="287.21115"
       sodipodi:rx="2.3263061"
       sodipodi:ry="2.3584745"
       sodipodi:start="0.65313188"
       sodipodi:end="0.64207522"
       sodipodi:open="true"
       sodipodi:arc-type="arc"
       d="m 4.7785542,288.64434 a 2.3263061,2.3584745 0 0 1 -3.256046,0.44383 2.3263061,2.3584745 0 0 1 -0.4467734,-3.29983 2.3263061,2.3584745 0 0 1 3.2535761,-0.46207 2.3263061,2.3584745 0 0 1 0.4647602,3.29727" />
    <path
       style="fill:none;stroke:currentColor;stroke-width:0.7;stroke-miterlimit:4;stroke-dasharray:none;stroke-opacity:1"
       id="path1992-5"
       sodipodi:type="arc"
       sodipodi:cx="7.7312775"
       sodipodi:cy="291.98224"
       sodipodi:rx="4.255434"
       sodipodi:ry="4.3566623"
       sodipodi:start="0.65313188"
       sodipodi:end="0.64207522"
       sodipodi:open="true"
       sodipodi:arc-type="arc"
       d="m 11.110877,294.62968 a 4.255434,4.3566623 0 0 1 -5.9561759,0.81986 4.255434,4.3566623 0 0 1 -0.8172676,-6.09557 4.255434,4.3566623 0 0 1 5.9516585,-0.85356 4.255434,4.3566623 0 0 1 0.85017,6.09085"
       class="ColorScheme-Text" />
    <path
       style="fill:none;stroke:currentColor;stroke-width:0.608325;stroke-miterlimit:4;stroke-dasharray:none;stroke-opacity:1"
       id="path1992-5-3"
       sodipodi:type="arc"
       sodipodi:cx="7.7029152"
       sodipodi:cy="291.97134"
       sodipodi:rx="0.79782051"
       sodipodi:ry="0.83358788"
       sodipodi:start="0.65313188"
       sodipodi:end="0.64207522"
       sodipodi:open="true"
       sodipodi:arc-type="arc"
       d="m 8.3365319,292.4779 a 0.79782051,0.83358788 0 0 1 -1.1166803,0.15686 0.79782051,0.83358788 0 0 1 -0.1532236,-1.1663 0.79782051,0.83358788 0 0 1 1.1158332,-0.16332 0.79782051,0.83358788 0 0 1 0.1593923,1.16541"
       class="ColorScheme-Text" />
    <path
       style="fill:none;stroke:#888888;stroke-width:0.7;stroke-miterlimit:4;stroke-dasharray:none;stroke-opacity:1"
       id="path1992-56"
       sodipodi:type="arc"
       sodipodi:cx="2.9236152"
       sodipodi:cy="287.21548"
       sodipodi:rx="0.78663343"
       sodipodi:ry="0.8117159"
       sodipodi:start="0.65313188"
       sodipodi:end="0.64207522"
       sodipodi:open="true"
       sodipodi:arc-type="arc"
       d="m 3.5483473,287.70875 a 0.78663343,0.8117159 0 0 1 -1.1010222,0.15275 0.78663343,0.8117159 0 0 1 -0.1510751,-1.1357 0.78663343,0.8117159 0 0 1 1.100187,-0.15904 0.78663343,0.8117159 0 0 1 0.1571573,1.13483" />
  </g>
</svg>
